<?xml version="1.0" ?><svg data-name="Layer 1" id="Layer_1" viewBox="0 0 64 64" xmlns="http://www.w3.org/2000/svg"><path d="M25.07,41.2a19.38,19.38,0,0,1-5.32-.82C15.94,39.23,12.06,36,12,31.33a11.93,11.93,0,0,1,4.39-9.14,11,11,0,0,1,2.87-1.65,13.65,13.65,0,0,1,9.55-.08c3.82,1.44,6,4.88,5.94,9.45A15,15,0,0,1,32.25,38a7.62,7.62,0,0,1-5.89,3.14Q25.72,41.2,25.07,41.2Zm-.95-20a11.71,11.71,0,0,0-4.29.8h0a9.59,9.59,0,0,0-2.48,1.42,10.34,10.34,0,0,0-3.81,7.91c.05,3.89,3.38,6.62,6.65,7.6,3.87,1.16,8.73,1.31,10.78-1.75a13.61,13.61,0,0,0,2.24-7.26c0-3.94-1.71-6.77-4.94-8A11.9,11.9,0,0,0,24.12,21.17Zm-4.58.08h0Z" fill="#fff"/><path d="M22,36.74a7.7,7.7,0,0,1-1-.06.77.77,0,1,1,.23-1.53,5.69,5.69,0,0,0,3.92-.84,1.48,1.48,0,0,0,.39-1.48,1.43,1.43,0,0,0-1.19-1.06,10.48,10.48,0,0,0-1.16-.15,12.6,12.6,0,0,1-1.57-.22A3.52,3.52,0,0,1,19.32,30a2.92,2.92,0,0,1-.22-2.31,4.31,4.31,0,0,1,1.21-2.2c1.41-1.35,3.54-1,4.81-.77a.77.77,0,1,1-.26,1.52c-1.33-.23-2.7-.39-3.49.37A2.82,2.82,0,0,0,20.59,28a1.57,1.57,0,0,0,0,1.14A2.23,2.23,0,0,0,22,29.9a10.54,10.54,0,0,0,1.34.19,12.56,12.56,0,0,1,1.32.17,3,3,0,0,1,2.38,2.16,3.05,3.05,0,0,1-.84,3A6.7,6.7,0,0,1,22,36.74Z" fill="#fff"/><path d="M24.5,39.05a.78.78,0,0,1-.76-.65l-.35-2.13A.77.77,0,0,1,24.91,36l.35,2.14a.77.77,0,0,1-.63.89Z" fill="#fff"/><path d="M22.85,25h-.14A.78.78,0,0,1,22.1,24c0-.12,0-.44,0-.7a6.84,6.84,0,0,1,.08-.92.77.77,0,1,1,1.51.29,5.37,5.37,0,0,0,0,.7,9.26,9.26,0,0,1-.08.93A.78.78,0,0,1,22.85,25Z" fill="#fff"/><path d="M39,41.19a17.14,17.14,0,0,1-7.72-1.74.78.78,0,0,1-.34-1,.77.77,0,0,1,1-.33,16.49,16.49,0,0,0,13,.47,8,8,0,0,0,4.55-4.77,10.53,10.53,0,0,0-.64-8.42,9.78,9.78,0,0,0-7.34-5.12,10.81,10.81,0,0,0-9.22,3.11.76.76,0,0,1-1.09,0,.78.78,0,0,1,0-1.09,12.33,12.33,0,0,1,10.54-3.55,11.28,11.28,0,0,1,8.48,5.92A12.13,12.13,0,0,1,51,34.31,9.56,9.56,0,0,1,45.52,40,17.74,17.74,0,0,1,39,41.19Z" fill="#fff"/><path d="M44,35.73a14.26,14.26,0,0,1-2.75-.2c-3.76-.73-5.23-4.32-4.69-7.34a6,6,0,0,1,1.92-3.55,5,5,0,0,1,4.2-1.09.77.77,0,1,1-.24,1.52c-2.71-.43-4,1.56-4.37,3.39-.41,2.35.65,5,3.47,5.56a15.65,15.65,0,0,0,2.83.17h0a.77.77,0,0,1,.77.76.78.78,0,0,1-.77.78Z" fill="#fff"/><path d="M37.69,30a.77.77,0,0,1,0-1.54l5-.35a.77.77,0,1,1,.11,1.53l-5,.35Z" fill="#fff"/><path d="M38.07,32.48a.77.77,0,0,1-.76-.71.76.76,0,0,1,.7-.83l5.18-.41a.77.77,0,0,1,.83.71.78.78,0,0,1-.71.83l-5.17.41Z" fill="#fff"/><path d="M22.42,20.81a.88.88,0,0,1-.69-.35.81.81,0,0,1-.06-.94,11.9,11.9,0,0,1,7.08-5.43,11.67,11.67,0,0,1,8.86,1.14.77.77,0,0,1-.77,1.33,10.09,10.09,0,0,0-7.68-1,10.32,10.32,0,0,0-6,4.41.61.61,0,0,1,0,.14.78.78,0,0,1-.56.66A.71.71,0,0,1,22.42,20.81ZM22,20.7Z" fill="#fff"/><path d="M37.36,16.9h0a.76.76,0,0,1-.75-.78A8.49,8.49,0,0,0,36.07,13a.77.77,0,0,1,1.45-.54,10.11,10.11,0,0,1,.61,3.65A.77.77,0,0,1,37.36,16.9Z" fill="#fff"/><path d="M33.43,18.58A.77.77,0,0,1,33,17.17a10.49,10.49,0,0,1,4.3-1.8.77.77,0,1,1,.12,1.53,9.5,9.5,0,0,0-3.57,1.55A.74.74,0,0,1,33.43,18.58Z" fill="#fff"/><path d="M30.63,48.79a13.09,13.09,0,0,1-2.18-.18,13.09,13.09,0,0,1-2.95-1,13.77,13.77,0,0,0-2.28-.8.77.77,0,0,1,.32-1.51,14.57,14.57,0,0,1,2.56.89,11.77,11.77,0,0,0,2.61.87,11.87,11.87,0,0,0,4.92-.22,11.71,11.71,0,0,0,7.65-6.2.78.78,0,0,1,1-.36.77.77,0,0,1,.36,1,13.43,13.43,0,0,1-12,7.46Z" fill="#fff"/><path d="M23.82,50.66a.79.79,0,0,1-.73-.51A25.18,25.18,0,0,1,21.9,46a.77.77,0,0,1,1.53-.17,22.7,22.7,0,0,0,1.11,3.81.77.77,0,0,1-.46,1A.85.85,0,0,1,23.82,50.66Z" fill="#fff"/><path d="M22.87,46.26a.77.77,0,0,1-.23-1.5,33.73,33.73,0,0,1,4.7-1.21h0a.78.78,0,0,1,.76.78.77.77,0,0,1-.77.76h0c-.36,0-2.49.61-4.24,1.14A.83.83,0,0,1,22.87,46.26Z" fill="#fff"/></svg>